<?xml version="1.0" encoding="UTF-8" standalone="no"?>
<svg width="15px" height="15px" viewBox="0 0 15 15" version="1.1" xmlns="http://www.w3.org/2000/svg" xmlns:xlink="http://www.w3.org/1999/xlink">
    <!-- Generator: Sketch 3.8.3 (29802) - http://www.bohemiancoding.com/sketch -->
    <title>album-hover</title>
    <desc>Created with Sketch.</desc>
    <defs></defs>
    <g id="-查看" stroke="none" stroke-width="1" fill="none" fill-rule="evenodd">
        <g id="Artboard-1" transform="translate(-402.000000, -91.000000)">
            <g id="album-hover" transform="translate(396.000000, 86.000000)">
                <g id="g34350" transform="translate(0.995750, 0.381260)" fill="#000000" fill-opacity="0.2980388" opacity="0">
                    <rect id="rect34352" x="0" y="0" width="24" height="24"></rect>
                </g>
                <path d="M6.50119,5.3622 C6.22505907,5.36222763 6.00121763,5.58606907 6.00119,5.8622 L6.00119,18.8622 C6.00121763,19.1383309 6.22505907,19.3621724 6.50119,19.3622 L18.50119,19.3622 C18.7773209,19.3621724 19.0011624,19.1383309 19.00119,18.8622 L19.00119,5.8622 C19.0011624,5.58606907 18.7773209,5.36222763 18.50119,5.3622 L6.50119,5.3622 L6.50119,5.3622 Z M7.00119,6.3622 L18.00119,6.3622 L18.00119,18.3622 L7.00119,18.3622 L7.00119,6.3622 L7.00119,6.3622 Z M20.49339,6.3622 C20.3607808,6.36426584 20.234424,6.41892732 20.142118,6.51415893 C20.0498119,6.60939053 19.9991184,6.73739092 20.00119,6.87 L20.00119,17.87 C19.9986391,18.0503185 20.0933767,18.218042 20.2491258,18.3089457 C20.4048749,18.3998493 20.5975051,18.3998493 20.7532542,18.3089457 C20.9090033,18.218042 21.0037409,18.0503185 21.00119,17.87 L21.00119,6.87 C21.0033039,6.73468609 20.9504828,6.60429331 20.8547897,6.50860025 C20.7590967,6.4129072 20.6287039,6.36008609 20.49339,6.3622 L20.49339,6.3622 Z M8.50119,7.3622 C8.22505907,7.36222763 8.00121763,7.58606907 8.00119,7.8622 L8.00119,14.8622 C8.00121763,15.1383309 8.22505907,15.3621724 8.50119,15.3622 L16.50119,15.3622 C16.7773209,15.3621724 17.0011624,15.1383309 17.00119,14.8622 L17.00119,7.8622 C17.0011624,7.58606907 16.7773209,7.36222763 16.50119,7.3622 L8.50119,7.3622 L8.50119,7.3622 Z M9.00119,8.3622 L16.00119,8.3622 L16.00119,14.3622 L9.00119,14.3622 L9.00119,8.3622 L9.00119,8.3622 Z" id="path35434" fill="#FFFFFF" opacity="0.918"></path>
            </g>
        </g>
    </g>
</svg>