<?xml version="1.0" encoding="UTF-8" standalone="no"?>
<svg width="15px" height="16px" viewBox="0 0 15 16" version="1.1" xmlns="http://www.w3.org/2000/svg" xmlns:xlink="http://www.w3.org/1999/xlink">
    <!-- Generator: Sketch 3.8.3 (29802) - http://www.bohemiancoding.com/sketch -->
    <title>timeline-hover</title>
    <desc>Created with Sketch.</desc>
    <defs></defs>
    <g id="-查看" stroke="none" stroke-width="1" fill="none" fill-rule="evenodd">
        <g id="Artboard-1" transform="translate(-371.000000, -90.000000)">
            <g id="timeline-hover" transform="translate(367.000000, 86.000000)">
                <g id="g34342" transform="translate(0.001150, 0.362060)" fill="#000000" fill-opacity="0.29803922" opacity="0">
                    <rect id="rect34344" x="0" y="0" width="24" height="24"></rect>
                </g>
                <path d="M11.49539,4.3524 C7.35919,4.3524 3.99539,7.7161 3.99539,11.8524 C3.99539,15.9886 7.35919,19.3524 11.49539,19.3524 C15.63159,19.3524 18.99539,15.9886 18.99539,11.8524 C18.99539,7.7161 15.63159,4.3524 11.49539,4.3524 L11.49539,4.3524 Z M11.49539,5.3524 C15.09109,5.3524 17.99539,8.2566 17.99539,11.8524 C17.99539,15.4481 15.09109,18.3524 11.49539,18.3524 C7.89959,18.3524 4.99539,15.4481 4.99539,11.8524 C4.99539,8.2566 7.89959,5.3524 11.49539,5.3524 L11.49539,5.3524 Z M11.48539,6.8446 C11.209997,6.84890449 10.9899342,7.07509257 10.99319,7.3505 L10.99319,11.8544 C10.9931235,12.0009978 11.0573895,12.1402408 11.16899,12.2353 L14.66899,15.2353 C14.8791277,15.4112509 15.1917387,15.3852736 15.3699524,15.1770515 C15.5481662,14.9688295 15.525572,14.6559557 15.31929,14.4755 L11.99319,11.6259 L11.99319,7.3505 C11.9947857,7.21551331 11.9417358,7.0856161 11.8461003,6.99033852 C11.7504649,6.89506093 11.6203698,6.84249832 11.48539,6.8446 L11.48539,6.8446 Z" id="path35428" fill="#FFFFFF" opacity="0.918"></path>
            </g>
        </g>
    </g>
</svg>